<svg data-name="Layer 1" id="Layer_1" viewBox="0 0 75 75" width="50" height="50" xmlns="http://www.w3.org/2000/svg"><defs><style>.cls-1,.cls-2{fill:none;stroke-linecap:round;stroke-linejoin:round;stroke-width:2px;}.cls-1{stroke:#b47ec4;}.cls-2{stroke:#7b7cd3;}</style></defs><title/><path class="cls-1" d="M42.5,51.11l7.92,4.16a1,1,0,0,0,1.45-1.05l-1.51-8.82,6.41-6.24a1,1,0,0,0-.55-1.71l-8.85-1.29-4-8a1,1,0,0,0-1.79,0l-4,8-8.85,1.29a1,1,0,0,0-.55,1.71l6.41,6.24-1.51,8.82a1,1,0,0,0,1.45,1.05Z"/><path class="cls-2" d="M32.6,11.74h0a8,8,0,0,0-11.51-.09L21,11.55a8,8,0,0,0-11.6,0h0a8.59,8.59,0,0,0,0,11.92L19.48,33.83l.66.68a1.31,1.31,0,0,0,1.88,0L32.6,23.66A8.59,8.59,0,0,0,32.6,11.74Z"/></svg>
